#!OML:ASF E:\acrobat2\Project_11_07_03\Capture day 1\Session 1\Acrobat.ASF
:FULLY-SPECIFIED
:DEGREES
834
root 12.8194 20.7556 9.41971 12.3483 5.2165 2.14712
lowerback 4.39227 0.798223 0.852827
upperback 2.26982 1.08817 -1.57218
thorax -0.0849068 0.560214 -2.13874
lowerneck -3.91619 -2.594 -0.16256
upperneck -2.83214 -3.43814 1.41781
head -0.193133 -1.71873 0.42052
rclavicle -1.42504e-014 2.09469e-014
rhumerus -62.9723 -5.60976 -35.5797
rradius 13.9844
rwrist 28.9483
rhand -6.78768 -45.8
rfingers 7.12502
rthumb 19.075 -74.8846
lclavicle -1.42504e-014 2.09469e-014
lhumerus -49.5663 -10.991 47.3452
lradius 10.7986
lwrist -8.90378
lhand -9.35952 -6.93808
lfingers 7.12502
lthumb 16.6003 22.3719
rfemur -22.2233 -1.84263 14.3503
rtibia 30.1377
rfoot -27.1835 -8.34868
rtoes 11.6682
lfemur -34.5279 -3.95192 -14.9494
ltibia 44.7523
lfoot -21.6771 -12.2667
ltoes 4.16691
835
root 12.8271 20.7653 9.31384 13.0193 5.1296 2.20042
lowerback 5.55931 0.85311 1.03643
upperback 2.61933 1.17386 -1.56783
thorax -0.367995 0.604761 -2.25952
lowerneck -4.15811 -2.56069 0.114797
upperneck -4.15984 -3.39714 1.12799
head -0.566094 -1.7062 0.298261
rclavicle -2.29348e-014 1.95306e-014
rhumerus -64.7439 -4.80987 -33.2642
rradius 13.8509
rwrist 27.9743
rhand -6.29011 -45.6255
rfingers 7.12502
rthumb 19.5535 -74.6622
lclavicle -2.29348e-014 1.95306e-014
lhumerus -51.5422 -12.1815 46.5315
lradius 10.9096
lwrist -7.29754
lhand -8.78252 -6.1268
lfingers 7.12502
lthumb 17.1558 23.1358
rfemur -24.3716 -2.95799 14.347
rtibia 31.8864
rfoot -26.3393 -7.57292
rtoes 9.86548
lfemur -36.4665 -3.86934 -14.9436
ltibia 46.0515
lfoot -20.8141 -11.9505
ltoes 4.18435
836
root 12.8359 20.7712 9.20192 13.6835 5.02539 2.26266
lowerback 6.79767 0.917434 1.21395
upperback 2.96421 1.27593 -1.56104
thorax -0.691589 0.656827 -2.38006
lowerneck -4.3528 -2.52963 0.387529
upperneck -5.5506 -3.36443 0.841285
head -0.970709 -1.69786 0.179415
rclavicle 1.37161e-014 2.98177e-015
rhumerus -66.5666 -3.79165 -31.3029
rradius 13.7632
rwrist 26.9325
rhand -5.84257 -45.4471
rfingers 7.12502
rthumb 19.9837 -74.4395
lclavicle 1.37161e-014 2.98177e-015
lhumerus -53.7305 -13.6792 46.2669
lradius 11.0825
lwrist -5.39376
lhand -8.32194 -5.47484
lfingers 7.12502
lthumb 17.599 23.7486
rfemur -26.671 -3.94325 14.343
rtibia 33.8708
rfoot -25.5798 -6.81319
rtoes 8.07197
lfemur -38.5058 -3.81048 -14.9339
ltibia 47.4847
lfoot -19.9081 -11.6477
ltoes 4.27098
837
root 12.846 20.7728 9.08521 14.3676 4.89028 2.33638
lowerback 8.03137 0.987726 1.36815
upperback 3.3068 1.38825 -1.54358
thorax -1.01134 0.713491 -2.48098
lowerneck -4.48472 -2.49357 0.624854
upperneck -6.99945 -3.32894 0.562318
head -1.41159 -1.68728 0.0681608
rclavicle -9.93923e-015 1.03368e-014
rhumerus -68.4099 -2.60203 -29.6547
rradius 13.7173
rwrist 25.8995
rhand -5.452 -45.2669
rfingers 7.12502
rthumb 20.3591 -74.2197
lclavicle -9.93923e-015 1.03368e-014
lhumerus -56.1564 -15.3537 46.5415
lradius 11.3151
lwrist -3.23228
lhand -7.99637 -4.94165
lfingers 7.12502
lthumb 17.9123 24.2535
rfemur -29.1407 -4.78289 14.3187
rtibia 36.07
rfoot -24.8978 -6.07243
rtoes 6.26709
lfemur -40.6589 -3.77272 -14.9187
ltibia 49.0342
lfoot -18.9841 -11.3819
ltoes 4.52739
838
root 12.8573 20.7687 8.96498 15.0914 4.69647 2.42632
lowerback 9.19479 1.07018 1.47423
upperback 3.64846 1.51549 -1.51611
thorax -1.28988 0.777319 -2.54797
lowerneck -4.53957 -2.45606 0.824846
upperneck -8.49188 -3.29585 0.282625
head -1.8892 -1.67622 -0.0383001
rclavicle -6.75868e-015 1.05356e-014
rhumerus -70.2616 -1.29483 -28.2644
rradius 13.7136
rwrist 24.9399
rhand -5.08535 -45.0481
rfingers 7.12502
rthumb 20.7114 -73.9629
lclavicle -6.75868e-015 1.05356e-014
lhumerus -58.8382 -17.0924 47.3266
lradius 11.6105
lwrist -0.855705
lhand -7.77996 -4.48136
lfingers 7.12502
lthumb 18.1206 24.6946
rfemur -31.7885 -5.46763 14.2535
rtibia 38.4554
rfoot -24.2855 -5.32515
rtoes 4.46177
lfemur -42.9285 -3.73539 -14.9043
ltibia 50.6835
lfoot -18.0901 -11.1597
ltoes 4.82569
839
root 12.8696 20.7566 8.84263 15.8557 4.42816 2.54645
lowerback 10.2557 1.16629 1.50093
upperback 3.98538 1.65423 -1.48425
thorax -1.5149 0.846582 -2.56796
lowerneck -4.52517 -2.40656 0.976034
upperneck -9.9697 -3.25019 0.0155118
head -2.3848 -1.65616 -0.134791
rclavicle -2.14687e-014 2.84262e-014
rhumerus -72.1099 0.087516 -27.0619
rradius 13.7437
rwrist 24.1174
rhand -4.74537 -44.7667
rfingers 7.12502
rthumb 21.038 -73.6456
lclavicle -2.14687e-014 2.84262e-014
lhumerus -61.707 -18.6562 48.3583
lradius 11.9421
lwrist 1.4611
lhand -7.59837 -4.0775
lfingers 7.12502
lthumb 18.2953 25.0821
rfemur -34.5895 -6.00498 14.1247
rtibia 40.9933
rfoot -23.7377 -4.57941
rtoes 2.52719
lfemur -45.2962 -3.68391 -14.9087
ltibia 52.4156
lfoot -17.2682 -11.0086
ltoes 5.08215
840
root 12.8828 20.7344 8.72 16.6565 4.0879 2.71637
lowerback 11.1939 1.27202 1.42383
upperback 4.30961 1.79362 -1.45562
thorax -1.6859 0.91566 -2.5329
lowerneck -4.427 -2.34184 1.07622
upperneck -11.3973 -3.18602 -0.226248
head -2.88955 -1.62373 -0.217026
rclavicle 4.1546e-014 -4.09496e-014
rhumerus -73.95 1.54814 -26.0264
rradius 13.8016
rwrist 23.4231
rhand -4.43577 -44.4207
rfingers 7.12502
rthumb 21.3354 -73.2662
lclavicle 4.1546e-014 -4.09496e-014
lhumerus -64.6257 -19.8249 49.266
lradius 12.27
lwrist 3.3969
lhand -7.40526 -3.72865
lfingers 7.12502
lthumb 18.481 25.4134
rfemur -37.5021 -6.42624 13.9112
rtibia 43.6456
rfoot -23.2639 -3.83899
rtoes 0.343891
lfemur -47.7402 -3.61975 -14.9544
ltibia 54.2102
lfoot -16.5428 -10.9611
ltoes 5.30154
841
root 12.8961 20.7004 8.59829 17.4893 3.68882 2.917
lowerback 12.0025 1.3918 1.2634
upperback 4.61233 1.93912 -1.4326
thorax -1.80869 0.987186 -2.45663
lowerneck -4.25596 -2.27247 1.15197
upperneck -12.7375 -3.11729 -0.444062
head -3.3894 -1.5867 -0.290001
rclavicle -7.55382e-015 4.77083e-015
rhumerus -75.7888 3.02947 -25.0413
rradius 13.8543
rwrist 22.9295
rhand -4.12142 -44.0021
rfingers 7.12502
rthumb 21.6374 -72.8131
lclavicle -7.55382e-015 4.77083e-015
lhumerus -67.4349 -20.5516 49.7755
lradius 12.5419
lwrist 4.75951
lhand -7.21611 -3.45216
lfingers 7.12502
lthumb 18.663 25.6726
rfemur -40.4953 -6.73786 13.6351
rtibia 46.3758
rfoot -22.8932 -3.13621
rtoes -2.16178
lfemur -50.2461 -3.54005 -15.0174
ltibia 56.0448
lfoot -15.9225 -11.044
ltoes 5.41727
842
root 12.9084 20.6537 8.47832 18.3382 3.27551 3.10522
lowerback 12.69 1.52365 1.07369
upperback 4.89049 2.09352 -1.40618
thorax -1.89075 1.0627 -2.3604
lowerneck -4.04442 -2.21454 1.20909
upperneck -13.9497 -3.0632 -0.623444
head -3.86294 -1.55576 -0.349829
rclavicle -3.37934e-015 -5.96354e-015
rhumerus -77.6042 4.37894 -23.7542
rradius 13.8519
rwrist 22.9238
rhand -3.81035 -43.5086
rfingers 7.12502
rthumb 21.9361 -72.2849
lclavicle -3.37934e-015 -5.96354e-015
lhumerus -69.9943 -20.8822 49.699
lradius 12.7029
lwrist 5.44269
lhand -7.05862 -3.28316
lfingers 7.12502
lthumb 18.8144 25.8269
rfemur -43.5249 -6.95301 13.3527
rtibia 49.1538
rfoot -22.6622 -2.51521
rtoes -4.8877
lfemur -52.7956 -3.45499 -15.0397
ltibia 57.8961
lfoot -15.3878 -11.2818
ltoes 5.4385
843
root 12.9191 20.5936 8.36075 19.179 2.91166 3.264
lowerback 13.2818 1.65825 0.89915
upperback 5.14197 2.25064 -1.368
thorax -1.94788 1.13926 -2.26011
lowerneck -3.78784 -2.19178 1.27736
upperneck -15.0278 -3.05555 -0.772233
head -4.30785 -1.54853 -0.402522
rclavicle -7.95139e-015 1.35174e-014
rhumerus -79.3634 5.52621 -21.9038
rradius 13.7661
rwrist 23.5561
rhand -3.53837 -42.9524
rfingers 7.12502
rthumb 22.1972 -71.6979
lclavicle -7.95139e-015 1.35174e-014
lhumerus -72.2607 -20.9566 49.0349
lradius 12.7426
lwrist 5.54115
lhand -6.99228 -3.21646
lfingers 7.12502
lthumb 18.8782 25.8874
rfemur -46.5311 -7.11425 13.0969
rtibia 51.9588
rfoot -22.6034 -1.96469
rtoes -7.30971
lfemur -55.3603 -3.38954 -14.9939
ltibia 59.743
lfoot -14.9103 -11.6725
ltoes 5.37573
844
root 12.9278 20.519 8.24597 19.9864 2.64144 3.39821
lowerback 13.813 1.7861 0.757227
upperback 5.36742 2.40141 -1.31139
thorax -1.99883 1.21237 -2.15815
lowerneck -3.5456 -2.20518 1.32207
upperneck -15.9163 -3.09197 -0.870307
head -4.68823 -1.56357 -0.435102
rclavicle -3.1408e-014 -5.56597e-015
rhumerus -81.0303 6.50322 -19.4255
rradius 13.5943
rwrist 24.7557
rhand -3.31015 -42.3537
rfingers 7.12502
rthumb 22.4163 -71.073
lclavicle -3.1408e-014 -5.56597e-015
lhumerus -74.2306 -20.8994 47.8423
lradius 12.6611
lwrist 5.18679
lhand -7.10194 -3.22381
lfingers 7.12502
lthumb 18.7728 25.8903
rfemur -49.4678 -7.26207 12.8749
rtibia 54.7832
rfoot -22.7272 -1.52776
rtoes -9.05823
lfemur -57.8967 -3.35856 -14.8868
ltibia 61.566
lfoot -14.4634 -12.2099
ltoes 5.28754
845
root 12.9342 20.4299 8.13447 20.7437 2.47762 3.51514
lowerback 14.3032 1.89771 0.644498
upperback 5.57707 2.53405 -1.23058
thorax -2.04453 1.27629 -2.04484
lowerneck -3.35457 -2.24749 1.31849
upperneck -16.6161 -3.16175 -0.915181
head -4.99234 -1.5947 -0.441853
rclavicle -5.1684e-015 4.77083e-015
rhumerus -82.5822 7.40018 -16.4475
rradius 13.3747
rwrist 26.2737
rhand -3.11767 -41.7638
rfingers 7.12502
rthumb 22.601 -70.4607
lclavicle -5.1684e-015 4.77083e-015
lhumerus -75.8929 -20.7517 46.115
lradius 12.4621
lwrist 4.4295
lhand -7.42504 -3.2894
lfingers 7.12502
lthumb 18.462 25.8545
rfemur -52.3054 -7.42334 12.6896
rtibia 57.6238
rfoot -23.0245 -1.30217
rtoes -10.0941
lfemur -60.3686 -3.36295 -14.7316
ltibia 63.3488
lfoot -14.0222 -12.8723
ltoes 5.30685
846
root 12.9382 20.3267 8.02647 21.4472 2.39902 3.6282
lowerback 14.7586 1.99359 0.541862
upperback 5.78321 2.64717 -1.13231
thorax -2.07608 1.33041 -1.91569
lowerneck -3.07375 -2.31976 1.29412
upperneck -17.694 -3.27856 -0.964451
head -4.84798 -1.64196 -0.407612
rclavicle -1.07344e-014 7.95139e-016
rhumerus -83.9486 8.22044 -12.9884
rradius 13.097
rwrist 28.039
rhand -2.96392 -41.2429
rfingers 7.12502
rthumb 22.7486 -69.9217
lclavicle -1.07344e-014 7.95139e-016
lhumerus -77.2483 -20.5477 43.8691
lradius 12.1685
lwrist 3.35275
lhand -7.94343 -3.39473
lfingers 7.12502
lthumb 17.9633 25.7957
rfemur -54.9968 -7.60591 12.5289
rtibia 60.3711
rfoot -23.415 -1.35607
rtoes -10.2866
lfemur -62.7268 -3.38329 -14.5582
ltibia 64.9909
lfoot -13.543 -13.5594
ltoes 5.43576
847
root 12.9402 20.2104 7.9223 22.0991 2.38178 3.75085
lowerback 15.182 2.07263 0.431751
upperback 5.99392 2.73689 -1.02731
thorax -2.0869 1.37283 -1.77083
lowerneck -3.02481 -2.41419 1.24471
upperneck -18.1397 -3.41478 -0.958098
head -4.99504 -1.70588 -0.389309
rclavicle -1.51076e-014 1.03368e-014
rhumerus -85.1378 9.03303 -9.3024
rradius 12.7991
rwrist 29.7794
rhand -2.84545 -40.8342
rfingers 7.12502
rthumb 22.8623 -69.499
lclavicle -1.51076e-014 1.03368e-014
lhumerus -78.2721 -20.2822 41.0411
lradius 11.7996
lwrist 1.96441
lhand -8.57196 -3.51661
lfingers 7.12502
lthumb 17.3584 25.7283
rfemur -57.5762 -7.81384 12.3789
rtibia 63.1233
rfoot -23.9338 -1.70147
rtoes -9.65842
lfemur -64.9837 -3.4018 -14.3983
ltibia 66.5756
lfoot -13.1169 -14.2249
ltoes 5.53141
848
root 12.94 20.1298 7.81801 22.7053 2.42402 3.88508
lowerback 15.5639 2.12586 0.314329
upperback 6.21781 2.7917 -0.918774
thorax -2.06292 1.39805 -1.61072
lowerneck -3.05208 -2.51437 1.17517
upperneck -18.505 -3.55417 -0.915371
head -5.10396 -1.77261 -0.357499
rclavicle 3.49861e-014 -1.43125e-014
rhumerus -86.1529 9.86268 -5.60096
rradius 12.5064
rwrist 31.3065
rhand -2.73286 -40.5311
rfingers 7.12502
rthumb 22.9703 -69.1825
lclavicle 3.49861e-014 -1.43125e-014
lhumerus -78.9259 -19.9113 37.4949
lradius 11.3818
lwrist 0.18515
lhand -9.17183 -3.64701
lfingers 7.12502
lthumb 16.781 25.6478
rfemur -59.8261 -8.031 12.2591
rtibia 65.6449
rfoot -24.5531 -2.39373
rtoes -8.44723
lfemur -66.9074 -3.44934 -14.2688
ltibia 67.8841
lfoot -12.8071 -14.7872
ltoes 5.56009
